<svg xmlns="http://www.w3.org/2000/svg" width="409" height="610" viewBox="0 0 409 610" version="1.1">
	<path d="M 156.585 24.081 C 143.219 39.966, 144.184 65.473, 158.775 82.017 C 163.918 87.847, 167.355 89.780, 169.466 88.028 C 171.977 85.944, 171.277 84.187, 165.750 78.706 C 157.129 70.157, 153.080 58.775, 154.486 47.042 C 155.219 40.924, 158.998 31.695, 162.140 28.351 C 164.716 25.609, 164.293 21.613, 161.383 21.198 C 159.995 21, 158.342 21.993, 156.585 24.081 M 245.709 21.624 C 244.318 23.015, 245.038 26.184, 247.470 29.372 C 252.471 35.928, 254.320 41.836, 254.413 51.550 C 254.495 60.096, 254.289 61.027, 250.699 68.293 C 248.111 73.531, 245.478 77.173, 242.449 79.705 C 237.781 83.607, 236.976 85.905, 239.534 88.028 C 241.633 89.770, 245.081 87.851, 250.102 82.147 C 261.566 69.123, 264.941 51.521, 259.004 35.718 C 255.350 25.989, 248.551 18.782, 245.709 21.624 M 170.771 31.750 C 168.118 34.768, 164.979 41.836, 164.001 46.996 C 162.152 56.745, 166.521 69.738, 173.796 76.125 C 180.680 82.170, 185.257 76.937, 178.587 70.647 C 173.576 65.921, 171.049 59.799, 171.022 52.323 C 171.004 47.183, 171.588 45.017, 174.502 39.427 C 177.187 34.276, 177.741 32.393, 176.879 31.355 C 175.327 29.484, 172.609 29.660, 170.771 31.750 M 231.656 31.453 C 231.350 32.252, 232.652 35.885, 234.549 39.525 C 237.406 45.006, 238 47.218, 238 52.376 C 238 59.656, 234.699 67.393, 229.852 71.471 C 226.224 74.524, 226.219 78.319, 229.843 78.832 C 233.270 79.317, 240.239 71.649, 242.946 64.415 C 246.725 54.313, 245.681 43.619, 240.047 34.735 C 237.820 31.224, 236.420 30, 234.629 30 C 233.301 30, 231.963 30.654, 231.656 31.453 M 201.500 38.786 C 189.455 41.480, 187.182 59.971, 198.206 65.579 C 200.018 66.500, 201.601 67.335, 201.724 67.434 C 202.120 67.753, 196.062 106.091, 195.461 107.062 C 195.143 107.578, 193.896 108.008, 192.691 108.017 C 188.787 108.048, 176.674 111.631, 169.683 114.823 C 147.729 124.847, 124.944 148.126, 112.254 173.500 C 97.552 202.894, 95.288 228.721, 106.006 244.771 C 116.979 261.204, 137.396 267.453, 184.993 268.946 C 235.676 270.537, 265.617 267.290, 283.446 258.270 C 291.005 254.446, 299.236 245.644, 301.942 238.493 C 315.543 202.539, 281.399 137.672, 237.500 116.063 C 233.100 113.898, 227.025 111.386, 224 110.482 C 213.603 107.376, 214.767 109.536, 211.577 87.418 C 209.202 70.945, 208.953 67.518, 210.109 67.148 C 210.874 66.902, 213.412 64.803, 215.750 62.482 C 219.595 58.665, 220 57.798, 219.996 53.382 C 219.992 47.652, 217.410 42.763, 213.294 40.690 C 210.054 39.057, 204.382 38.142, 201.500 38.786 M 161.500 282.099 C 121.729 284.575, 99.172 290.082, 91.479 299.197 C 87.285 304.166, 83.263 313.423, 82.523 319.811 C 81.166 331.528, 96.457 396.381, 110.587 438.840 C 138.580 522.958, 170.634 564.037, 205.500 560.479 C 244.105 556.540, 275.680 518.731, 300.049 447.262 C 311.104 414.843, 321.102 372.745, 326.535 335.749 C 327.990 325.839, 328.068 323.020, 327.035 317.749 C 324.716 305.912, 318.970 297.066, 310.940 292.970 C 301.635 288.222, 276.096 283.842, 247.350 282.062 C 227.965 280.862, 181.056 280.882, 161.500 282.099 M 65.363 319.442 C 57.029 325.054, 48.606 335.126, 43.464 345.627 C 40.926 350.809, 38.999 355.497, 39.182 356.045 C 39.475 356.925, 60.443 367, 61.980 367 C 62.312 367, 63.746 364.637, 65.168 361.750 C 66.589 358.863, 69.529 354.141, 71.702 351.258 L 75.652 346.016 73.522 331.537 C 72.350 323.574, 71.166 316.833, 70.891 316.557 C 70.615 316.282, 68.127 317.580, 65.363 319.442 M 337.531 318.250 C 336.532 322.679, 334 340.025, 334 342.436 C 334 343.840, 336.157 347.744, 339.030 351.540 C 341.797 355.195, 345.181 360.396, 346.550 363.098 L 349.039 368.011 352.270 366.649 C 365.161 361.217, 371.999 357.562, 371.986 356.111 C 371.949 351.906, 357.837 329.891, 351.330 323.890 C 347.539 320.392, 340.834 316, 339.287 316 C 338.600 316, 337.810 317.012, 337.531 318.250 M 32.561 373.250 C 30.430 380.732, 29.016 390.491, 29.008 397.780 L 29 404.060 41.750 403.780 L 54.500 403.500 55.616 394 C 56.230 388.775, 57.234 382.714, 57.847 380.530 C 58.459 378.347, 58.610 376.210, 58.182 375.782 C 57.245 374.845, 37.145 368, 35.331 368 C 34.630 368, 33.383 370.363, 32.561 373.250 M 363.714 372.433 C 358.332 374.251, 353.649 376.017, 353.308 376.359 C 352.966 376.700, 353.432 380.372, 354.344 384.518 C 355.255 388.664, 356.007 394.182, 356.015 396.778 C 356.024 399.375, 356.361 402.009, 356.765 402.631 C 357.199 403.298, 362.516 404.061, 369.739 404.491 C 380.405 405.126, 382.056 405.017, 382.584 403.641 C 383.394 401.531, 381.563 385.280, 379.498 376.250 C 377.517 367.587, 377.833 367.663, 363.714 372.433 M 38.500 414.376 C 31.384 415.376, 30.465 415.747, 30.182 417.737 C 29.552 422.170, 37.101 447.326, 39.960 450.322 C 40.719 451.118, 63 440.566, 63 439.412 C 63 439.097, 61.689 435.124, 60.086 430.583 C 58.483 426.042, 56.857 420.228, 56.472 417.663 L 55.773 413 51.136 413.126 C 48.586 413.195, 42.900 413.758, 38.500 414.376 M 355.489 415.647 C 353.972 422.854, 351.623 430.908, 349.762 435.280 C 348.643 437.910, 347.901 440.220, 348.114 440.416 C 348.326 440.611, 353.104 443.072, 358.732 445.885 C 367.373 450.205, 371.988 451.896, 372.003 450.750 C 372.005 450.613, 373.293 447.345, 374.864 443.489 C 378.308 435.039, 382.444 418.024, 381.312 416.963 C 380.865 416.545, 376.450 415.690, 371.500 415.065 C 366.550 414.439, 361.058 413.672, 359.295 413.361 C 356.394 412.848, 356.033 413.065, 355.489 415.647 M 57 454.109 C 51.775 457.456, 47.156 460.517, 46.736 460.911 C 46.316 461.306, 47.740 464.152, 49.900 467.236 C 53.814 472.823, 53.821 472.852, 51.813 474.669 C 50.072 476.244, 49.885 477.265, 50.437 482.149 C 50.789 485.260, 51.286 488.861, 51.541 490.152 C 51.797 491.444, 52.693 496.325, 53.535 501 C 54.376 505.675, 55.269 510.455, 55.519 511.623 C 55.888 513.344, 58.675 514.709, 70.237 518.830 C 78.082 521.627, 85.148 524.046, 85.940 524.207 C 88.024 524.631, 92.336 513.914, 90.695 512.389 C 90.038 511.779, 84.675 509.586, 78.779 507.517 C 72.054 505.158, 67.880 503.149, 67.581 502.128 C 67.318 501.233, 66.616 497.575, 66.019 494 C 65.422 490.425, 64.707 486.348, 64.430 484.941 C 63.993 482.727, 65.003 481.479, 71.918 475.691 C 76.315 472.011, 80.568 469, 81.370 469 C 83.066 469, 99.113 474.923, 100.304 475.988 C 100.746 476.384, 102.019 481.836, 103.134 488.104 C 104.249 494.372, 105.526 499.879, 105.973 500.343 C 106.420 500.807, 109.309 500.662, 112.393 500.022 C 117.133 499.038, 117.999 498.521, 117.996 496.679 C 117.989 493.084, 113.059 466.656, 112.250 465.878 C 111.837 465.481, 104.075 462.460, 95 459.165 C 79.960 453.705, 78.303 453.301, 76.271 454.597 C 74.171 455.936, 73.886 455.785, 71.388 452.010 C 69.928 449.804, 68.232 448.005, 67.617 448.012 C 67.003 448.018, 62.225 450.762, 57 454.109 M 341.995 449.750 C 341.992 450.163, 340.951 451.798, 339.682 453.385 C 337.654 455.918, 337.103 456.126, 335.162 455.087 C 333.268 454.073, 330.550 454.791, 316.226 460.089 C 307.026 463.491, 299.230 466.692, 298.900 467.204 C 298.143 468.376, 292.688 499.025, 293.155 499.480 C 293.762 500.071, 305.323 502.010, 305.742 501.592 C 305.963 501.370, 307.069 495.859, 308.198 489.344 C 309.328 482.830, 310.535 477.183, 310.880 476.796 C 311.226 476.408, 315.871 474.512, 321.204 472.582 L 330.899 469.072 338.700 475.687 C 343.228 479.526, 346.598 483.182, 346.734 484.401 C 346.862 485.555, 346.183 490.543, 345.225 495.484 L 343.483 504.469 331.991 508.614 C 321.433 512.422, 320.513 512.958, 320.665 515.207 C 320.915 518.928, 323.732 525.002, 325.199 524.984 C 325.915 524.975, 332.992 522.613, 340.926 519.734 L 355.352 514.500 356.574 509 C 357.246 505.975, 358.067 501.475, 358.400 499 C 358.732 496.525, 359.756 490.707, 360.675 486.071 C 362.344 477.644, 362.344 477.640, 360.172 476.199 C 357.286 474.282, 357.398 473.588, 361.500 468 C 363.425 465.378, 364.992 462.842, 364.982 462.366 C 364.973 461.890, 360.475 458.688, 354.988 455.250 C 345.750 449.463, 342.007 447.879, 341.995 449.750" stroke="none" fill="black" fill-rule="evenodd"/>
</svg>